<?xml version="1.0" encoding="utf-8"?>
<svg xmlns="http://www.w3.org/2000/svg" width="24" height="24" viewBox="168 30 505 535">
	<path
		fill="#FFFFFF"
		fill-rule="evenodd"
		clip-rule="evenodd"
		d="M279.385,30.31c-1.916-0.048-3.878,0.208-5.816,0.802h-0.018l-1.203,0.365c-0.006,0-0.012,0-0.018,0
		c-61.441,18.903-103.435,75.766-103.435,140.047v6.637c0,50.91,32.255,109.684,74.682,138.916v117.201
		c0,72.072,58.622,130.693,130.693,130.693h93.352c72.072,0,130.693-58.622,130.693-130.693V317.077
		c42.427-29.232,74.682-87.997,74.682-138.898v-6.637c0-64.29-41.993-121.162-103.435-140.065c-0.006,0-0.012,0-0.018,0
		l-1.203-0.365h-0.018c-7.754-2.381-15.82,0.78-20.166,6.327c-4.349,5.552-5.504,14.15-1.331,21.114c0.006,0,0.012,0,0.018,0
		l10.885,18.16l-9.882,6.582c-10.268,6.846-10.968,22.295-1.367,30.048c2.482,2.006,4.928,4.158,5.233,4.467
		c16.869,17.178,22.689,40.718,19.418,65.274c-3.075,23.089-15.014,46.228-32.436,64.143c-9.023-2.865-59.043-18.324-117.73-18.324
		c-60.019,0-108.859,14.703-117.766,17.467c-17.441-17.912-29.37-40.912-32.436-63.797c-3.261-24.334,2.525-47.616,19.4-64.763
		c0.297-0.302,2.764-2.457,5.251-4.467c9.6-7.753,8.901-23.22-1.367-30.066l-9.882-6.564l10.885-18.16
		c4.18-6.961,3.057-15.559-1.295-21.114C290.492,33.277,285.133,30.455,279.385,30.31z
		M336.928,368.931c-25.779,0-46.676,25.077-46.676,56.011s20.898,56.011,46.676,56.011s46.676-25.077,46.676-56.011
		S362.706,368.931,336.928,368.931z
		M504.962,368.931c-25.779,0-46.676,25.077-46.676,56.011s20.898,56.011,46.676,56.011c25.779,0,46.676-25.077,46.676-56.011
		S530.741,368.931,504.962,368.931z"
	/>
</svg>
